<svg width="18" height="18" viewBox="0 0 18 18" fill="none" xmlns="http://www.w3.org/2000/svg">
<path d="M9.00003 6.67874C7.71794 6.67874 6.67861 7.71808 6.67861 9.00017C6.67861 10.2823 7.71794 11.3216 9.00003 11.3216C10.2821 11.3216 11.3215 10.2823 11.3215 9.00017C11.3215 7.71808 10.2821 6.67874 9.00003 6.67874Z" fill="#29CDB5"/>
<path fill-rule="evenodd" clip-rule="evenodd" d="M5.26399 2.62979C7.72693 2.35452 10.2732 2.35452 12.7361 2.62979C14.0921 2.78135 15.1858 3.84976 15.345 5.21051C15.6394 7.72837 15.6394 10.272 15.345 12.7898C15.1858 14.1506 14.0921 15.219 12.7361 15.3705C10.2732 15.6458 7.72693 15.6458 5.26399 15.3705C3.90799 15.219 2.81428 14.1506 2.65513 12.7898C2.36064 10.272 2.36064 7.72837 2.65513 5.21051C2.81428 3.84976 3.90799 2.78135 5.26399 2.62979ZM12.5715 4.71446C12.177 4.71446 11.8572 5.03425 11.8572 5.42874C11.8572 5.82323 12.177 6.14303 12.5715 6.14303C12.966 6.14303 13.2857 5.82323 13.2857 5.42874C13.2857 5.03425 12.966 4.71446 12.5715 4.71446ZM5.60718 9.00017C5.60718 7.12635 7.12621 5.60731 9.00003 5.60731C10.8739 5.60731 12.3929 7.12635 12.3929 9.00017C12.3929 10.874 10.8739 12.393 9.00003 12.393C7.12621 12.393 5.60718 10.874 5.60718 9.00017Z" fill="#29CDB5"/>
</svg>
