<svg width="106" height="18" viewBox="0 0 106 18" fill="none" xmlns="http://www.w3.org/2000/svg">
<g clip-path="url(#clip0_41_623)">
<path d="M13.1699 15.7499C13.05 15.7504 12.9317 15.7221 12.8249 15.6674L8.99995 13.6649L5.17494 15.6674C5.05074 15.7327 4.9107 15.7619 4.77075 15.7516C4.6308 15.7412 4.49655 15.6919 4.38327 15.6091C4.26998 15.5262 4.1822 15.4133 4.12991 15.2831C4.07761 15.1529 4.0629 15.0106 4.08744 14.8724L4.83744 10.6499L1.74744 7.64991C1.65104 7.5537 1.58265 7.43306 1.54961 7.30093C1.51658 7.1688 1.52015 7.03016 1.55994 6.89991C1.60341 6.76661 1.68338 6.64817 1.79076 6.55803C1.89814 6.46788 2.02864 6.40964 2.16744 6.38991L6.44244 5.76741L8.32495 1.91991C8.38636 1.79311 8.48225 1.68617 8.60163 1.61134C8.72101 1.53651 8.85905 1.49683 8.99995 1.49683C9.14084 1.49683 9.27888 1.53651 9.39826 1.61134C9.51764 1.68617 9.61353 1.79311 9.67494 1.91991L11.5799 5.75991L15.8549 6.38241C15.9938 6.40214 16.1243 6.46038 16.2316 6.55053C16.339 6.64067 16.419 6.75911 16.4624 6.89241C16.5022 7.02266 16.5058 7.1613 16.4728 7.29343C16.4397 7.42556 16.3714 7.5462 16.2749 7.64241L13.1849 10.6424L13.9349 14.8649C13.9617 15.0055 13.9477 15.1508 13.8945 15.2837C13.8414 15.4166 13.7513 15.5316 13.6349 15.6149C13.4991 15.7101 13.3356 15.7576 13.1699 15.7499Z" fill="#69B99D"/>
</g>
<g clip-path="url(#clip1_41_623)">
<path d="M35.1699 15.7499C35.05 15.7504 34.9317 15.7221 34.8249 15.6674L30.9999 13.6649L27.1749 15.6674C27.0507 15.7327 26.9107 15.7619 26.7708 15.7516C26.6308 15.7412 26.4966 15.6919 26.3833 15.6091C26.27 15.5262 26.1822 15.4133 26.1299 15.2831C26.0776 15.1529 26.0629 15.0106 26.0874 14.8724L26.8374 10.6499L23.7474 7.64991C23.651 7.5537 23.5826 7.43306 23.5496 7.30093C23.5166 7.1688 23.5202 7.03016 23.5599 6.89991C23.6034 6.76661 23.6834 6.64817 23.7908 6.55803C23.8981 6.46788 24.0286 6.40964 24.1674 6.38991L28.4424 5.76741L30.3249 1.91991C30.3864 1.79311 30.4822 1.68617 30.6016 1.61134C30.721 1.53651 30.8591 1.49683 30.9999 1.49683C31.1408 1.49683 31.2789 1.53651 31.3983 1.61134C31.5176 1.68617 31.6135 1.79311 31.6749 1.91991L33.5799 5.75991L37.8549 6.38241C37.9938 6.40214 38.1243 6.46038 38.2316 6.55053C38.339 6.64067 38.419 6.75911 38.4624 6.89241C38.5022 7.02266 38.5058 7.1613 38.4728 7.29343C38.4397 7.42556 38.3714 7.5462 38.2749 7.64241L35.1849 10.6424L35.9349 14.8649C35.9617 15.0055 35.9477 15.1508 35.8945 15.2837C35.8414 15.4166 35.7513 15.5316 35.6349 15.6149C35.4991 15.7101 35.3356 15.7576 35.1699 15.7499Z" fill="#69B99D"/>
</g>
<g clip-path="url(#clip2_41_623)">
<path d="M57.1699 15.7499C57.05 15.7504 56.9317 15.7221 56.8249 15.6674L52.9999 13.6649L49.1749 15.6674C49.0507 15.7327 48.9107 15.7619 48.7708 15.7516C48.6308 15.7412 48.4966 15.6919 48.3833 15.6091C48.27 15.5262 48.1822 15.4133 48.1299 15.2831C48.0776 15.1529 48.0629 15.0106 48.0874 14.8724L48.8374 10.6499L45.7474 7.64991C45.651 7.5537 45.5826 7.43306 45.5496 7.30093C45.5166 7.1688 45.5202 7.03016 45.5599 6.89991C45.6034 6.76661 45.6834 6.64817 45.7908 6.55803C45.8981 6.46788 46.0286 6.40964 46.1674 6.38991L50.4424 5.76741L52.3249 1.91991C52.3864 1.79311 52.4822 1.68617 52.6016 1.61134C52.721 1.53651 52.8591 1.49683 52.9999 1.49683C53.1408 1.49683 53.2789 1.53651 53.3983 1.61134C53.5176 1.68617 53.6135 1.79311 53.6749 1.91991L55.5799 5.75991L59.8549 6.38241C59.9938 6.40214 60.1243 6.46038 60.2316 6.55053C60.339 6.64067 60.419 6.75911 60.4624 6.89241C60.5022 7.02266 60.5058 7.1613 60.4728 7.29343C60.4397 7.42556 60.3714 7.5462 60.2749 7.64241L57.1849 10.6424L57.9349 14.8649C57.9617 15.0055 57.9477 15.1508 57.8945 15.2837C57.8414 15.4166 57.7513 15.5316 57.6349 15.6149C57.4991 15.7101 57.3356 15.7576 57.1699 15.7499Z" fill="#69B99D"/>
</g>
<g clip-path="url(#clip3_41_623)">
<path d="M79.1699 15.7499C79.05 15.7504 78.9317 15.7221 78.8249 15.6674L74.9999 13.6649L71.1749 15.6674C71.0507 15.7327 70.9107 15.7619 70.7708 15.7516C70.6308 15.7412 70.4966 15.6919 70.3833 15.6091C70.27 15.5262 70.1822 15.4133 70.1299 15.2831C70.0776 15.1529 70.0629 15.0106 70.0874 14.8724L70.8374 10.6499L67.7474 7.64991C67.651 7.5537 67.5826 7.43306 67.5496 7.30093C67.5166 7.1688 67.5202 7.03016 67.5599 6.89991C67.6034 6.76661 67.6834 6.64817 67.7908 6.55803C67.8981 6.46788 68.0286 6.40964 68.1674 6.38991L72.4424 5.76741L74.3249 1.91991C74.3864 1.79311 74.4822 1.68617 74.6016 1.61134C74.721 1.53651 74.8591 1.49683 74.9999 1.49683C75.1408 1.49683 75.2789 1.53651 75.3983 1.61134C75.5176 1.68617 75.6135 1.79311 75.6749 1.91991L77.5799 5.75991L81.8549 6.38241C81.9938 6.40214 82.1243 6.46038 82.2316 6.55053C82.339 6.64067 82.419 6.75911 82.4624 6.89241C82.5022 7.02266 82.5058 7.1613 82.4728 7.29343C82.4397 7.42556 82.3714 7.5462 82.2749 7.64241L79.1849 10.6424L79.9349 14.8649C79.9617 15.0055 79.9477 15.1508 79.8945 15.2837C79.8414 15.4166 79.7513 15.5316 79.6349 15.6149C79.4991 15.7101 79.3356 15.7576 79.1699 15.7499Z" fill="#69B99D"/>
</g>
<g clip-path="url(#clip4_41_623)">
<path d="M101.17 15.7499C101.05 15.7504 100.932 15.7221 100.825 15.6674L96.9999 13.6649L93.1749 15.6674C93.0507 15.7327 92.9107 15.7619 92.7708 15.7516C92.6308 15.7412 92.4966 15.6919 92.3833 15.6091C92.27 15.5262 92.1822 15.4133 92.1299 15.2831C92.0776 15.1529 92.0629 15.0106 92.0874 14.8724L92.8374 10.6499L89.7474 7.64991C89.651 7.5537 89.5826 7.43306 89.5496 7.30093C89.5166 7.1688 89.5202 7.03016 89.5599 6.89991C89.6034 6.76661 89.6834 6.64817 89.7908 6.55803C89.8981 6.46788 90.0286 6.40964 90.1674 6.38991L94.4424 5.76741L96.3249 1.91991C96.3864 1.79311 96.4822 1.68617 96.6016 1.61134C96.721 1.53651 96.8591 1.49683 96.9999 1.49683C97.1408 1.49683 97.2789 1.53651 97.3983 1.61134C97.5176 1.68617 97.6135 1.79311 97.6749 1.91991L99.5799 5.75991L103.855 6.38241C103.994 6.40214 104.124 6.46038 104.232 6.55053C104.339 6.64067 104.419 6.75911 104.462 6.89241C104.502 7.02266 104.506 7.1613 104.473 7.29343C104.44 7.42556 104.371 7.5462 104.275 7.64241L101.185 10.6424L101.935 14.8649C101.962 15.0055 101.948 15.1508 101.895 15.2837C101.841 15.4166 101.751 15.5316 101.635 15.6149C101.499 15.7101 101.336 15.7576 101.17 15.7499Z" fill="#69B99D"/>
</g>
<defs>
<clipPath id="clip0_41_623">
<rect width="18" height="18" fill="white"/>
</clipPath>
<clipPath id="clip1_41_623">
<rect width="18" height="18" fill="white" transform="translate(22)"/>
</clipPath>
<clipPath id="clip2_41_623">
<rect width="18" height="18" fill="white" transform="translate(44)"/>
</clipPath>
<clipPath id="clip3_41_623">
<rect width="18" height="18" fill="white" transform="translate(66)"/>
</clipPath>
<clipPath id="clip4_41_623">
<rect width="18" height="18" fill="white" transform="translate(88)"/>
</clipPath>
</defs>
</svg>
