<svg width="28" height="28" viewBox="0 0 28 28" fill="none" xmlns="http://www.w3.org/2000/svg">
<path fill-rule="evenodd" clip-rule="evenodd" d="M8.22675 0.666504H19.7867C24.3067 0.666504 27.3334 3.83984 27.3334 8.55984V19.4545C27.3334 24.1598 24.3067 27.3332 19.7867 27.3332H8.22675C3.70675 27.3332 0.666748 24.1598 0.666748 19.4545V8.55984C0.666748 3.83984 3.70675 0.666504 8.22675 0.666504ZM13.2401 17.9865L19.5734 11.6532C20.0268 11.1998 20.0268 10.4665 19.5734 9.99984C19.1201 9.5465 18.3734 9.5465 17.9201 9.99984L12.4134 15.5065L10.0801 13.1732C9.62675 12.7198 8.88008 12.7198 8.42675 13.1732C7.97342 13.6265 7.97342 14.3598 8.42675 14.8265L11.6001 17.9865C11.8268 18.2132 12.1201 18.3198 12.4134 18.3198C12.7201 18.3198 13.0134 18.2132 13.2401 17.9865Z" fill="#69B99D"/>
</svg>
