<svg width="18" height="18" viewBox="0 0 18 18" fill="none" xmlns="http://www.w3.org/2000/svg">
<path fill-rule="evenodd" clip-rule="evenodd" d="M5.64519 3.1398C8.02781 2.9534 10.4213 2.9534 12.804 3.1398L14.4045 3.26502C15.296 3.33476 16.0253 4.0029 16.1726 4.88488C16.5413 7.09167 16.5413 9.34434 16.1726 11.5511C16.0253 12.4331 15.296 13.1012 14.4045 13.171L12.804 13.2962C10.4213 13.4826 8.02781 13.4826 5.64519 13.2962L4.04469 13.171C3.15321 13.1012 2.4239 12.4331 2.27654 11.5511C1.90782 9.34434 1.90782 7.09167 2.27654 4.88488C2.4239 4.0029 3.15321 3.33476 4.04469 3.26502L5.64519 3.1398ZM7.79599 9.98239V6.45362C7.79599 6.28705 7.97769 6.18417 8.12052 6.26987L11.0612 8.03426C11.1999 8.11749 11.1999 8.31852 11.0612 8.40175L8.12052 10.1661C7.97769 10.2518 7.79599 10.149 7.79599 9.98239Z" fill="#29CDB5"/>
</svg>
